<svg width="380" height="380" viewBox="0 0 380 380" fill="none" xmlns="http://www.w3.org/2000/svg">
<path fill-rule="evenodd" clip-rule="evenodd" d="M172.239 0.574106C170.98 0.80884 165.311 1.46953 159.642 2.04205C146.894 3.33022 139.765 5.15657 125.844 10.702C101.78 20.286 81.9755 31.9071 65.7367 45.9705C35.4705 72.1817 13.5172 108.659 4.60532 147.547C-0.991226 171.97 -1.5329 203.105 3.23223 226.492C26.4532 340.466 141.187 406.457 252.545 369.886C270.494 363.991 296.275 349.573 310.807 337.3C319.232 330.186 333.429 315.943 339.019 308.998C356.521 287.25 370.222 258.095 376.779 228.646C379.828 214.956 381.025 180.779 378.994 165.439C370.628 102.262 331.477 47.8838 273.795 19.3242C255.129 10.0825 233.814 3.67603 212.998 1.05159C204.037 -0.0785663 177.427 -0.39002 172.239 0.574106ZM165.622 19.0162C146.419 44.1407 133.194 88.9943 128.064 146.402C126.507 163.815 126.112 203.817 127.311 222.548C128.192 236.288 128.192 236.288 125.331 232.863C122.957 230.021 113.335 211.643 109.739 203.082C102.804 186.571 98.1788 163.476 97.4997 141.965C96.2457 102.283 105.95 67.9782 127.825 34.7605C137.492 20.0811 140.24 17.6444 149.575 15.4734C161.147 12.7826 161.572 12.7093 166.293 12.565C170.656 12.4322 170.656 12.4322 165.622 19.0162ZM245.451 19.4582C309.637 40.3964 355.804 94.4287 367.617 162.433C369.612 173.921 369.626 206.386 367.642 217.967C363.026 244.907 352.982 269.949 338.024 291.823C329.455 304.353 322.774 311.667 317.759 314.01C311.915 316.741 289.747 318.55 270.675 317.854C254.14 317.251 247.51 315.936 248.983 313.552C249.834 312.177 254.193 295.999 255.3 290.105C262.91 249.629 264.718 230.266 264.657 189.914C264.579 137.873 259.439 100.545 246.997 61.669C242.662 48.1197 233.897 29.609 228.462 22.52C226.198 19.5658 224.345 16.5452 224.345 15.8055C224.345 13.8761 232.85 15.3475 245.451 19.4582ZM115.552 29.1154C115.552 29.475 112.492 35.3055 108.753 42.0739C92.3131 71.8232 84.693 101.764 84.6518 136.764C84.6334 152.829 85.0377 157.035 88.2145 173.883C93.2247 200.457 105.947 228.859 123.561 252.8C129.637 261.056 131.519 264.568 132.099 268.733C137.089 304.51 150.627 342.566 165.07 361.413C167.616 364.736 169.382 367.771 168.994 368.159C167.428 369.726 140.118 363.168 126.432 357.94C83.2523 341.446 48.3573 309.144 28.4138 267.204C21.995 253.706 17.8048 241.53 14.4242 226.555C12.3182 217.224 11.9689 212.096 11.9689 190.486C11.9689 168.656 12.3067 163.792 14.5009 154.03C19.3748 132.339 25.5978 116.715 36.9214 97.7379C50.2297 75.4347 64.4804 59.9892 85.7775 44.7842C100.066 34.5842 115.552 26.4338 115.552 29.1154ZM154.276 285.144C161.527 291.359 180.055 303.424 190.562 308.776C202.313 314.76 208.02 317.125 218.619 320.403C234.646 325.359 234.092 324.604 229.342 335.014C222.672 349.631 212.832 362.11 204.637 366.345C187.303 375.302 168.323 356.767 155.155 318.028C151.028 305.884 145.332 283.807 145.329 279.946C145.327 277.516 145.477 277.605 154.276 285.144ZM276.165 329.269C289.864 329.544 301.073 330.037 301.073 330.365C301.073 332.569 279.143 346.512 266.145 352.573C252.997 358.702 226.178 367.319 224.736 365.877C224.459 365.601 226.513 362.094 229.298 358.084C233.712 351.73 242.105 335.524 244.26 329.192C244.84 327.491 245.624 327.231 248.122 327.913C249.847 328.384 262.466 328.994 276.165 329.269Z" fill="black"/>
<path d="M115.552 29.1154C115.552 29.475 112.492 35.3055 108.753 42.0739C92.3131 71.8232 84.693 101.764 84.6518 136.764C84.6334 152.829 85.0377 157.035 88.2145 173.883C93.2247 200.457 105.947 228.859 123.561 252.8C129.637 261.056 131.519 264.568 132.099 268.733C137.089 304.51 150.627 342.566 165.07 361.413C167.616 364.736 169.382 367.771 168.994 368.159C167.428 369.726 140.118 363.168 126.432 357.94C83.2523 341.446 48.3573 309.144 28.4138 267.204C21.995 253.706 17.8048 241.53 14.4242 226.555C12.3182 217.224 11.9689 212.096 11.9689 190.486C11.9689 168.656 12.3067 163.792 14.5009 154.03C19.3748 132.339 25.5978 116.715 36.9214 97.7379C50.2297 75.4347 64.4804 59.9892 85.7775 44.7842C100.066 34.5842 115.552 26.4338 115.552 29.1154Z" fill="#D0D0D0"/>
<path d="M154.276 285.144C161.527 291.359 180.055 303.424 190.562 308.776C202.313 314.76 208.02 317.125 218.619 320.403C234.646 325.359 234.092 324.604 229.342 335.014C222.672 349.631 212.832 362.11 204.637 366.345C187.303 375.302 168.323 356.767 155.155 318.028C151.028 305.884 145.332 283.807 145.329 279.946C145.327 277.516 145.477 277.605 154.276 285.144Z" fill="#EBEBEB"/>
<path d="M276.165 329.269C289.864 329.544 301.073 330.037 301.073 330.365C301.073 332.569 279.143 346.512 266.145 352.573C252.997 358.702 226.178 367.319 224.736 365.877C224.459 365.601 226.513 362.094 229.298 358.084C233.712 351.73 242.105 335.524 244.26 329.192C244.84 327.491 245.624 327.231 248.122 327.913C249.847 328.384 262.466 328.994 276.165 329.269Z" fill="#D0D0D0"/>
</svg>
