<svg width="400" height="400" viewBox="0 0 400 400" fill="none" xmlns="http://www.w3.org/2000/svg">
<path fill-rule="evenodd" clip-rule="evenodd" d="M185.044 40.4835C183.983 40.6811 179.209 41.2375 174.436 41.7196C163.7 42.8044 157.697 44.3424 145.974 49.0122C125.71 57.083 109.032 66.8691 95.3572 78.712C69.8699 100.785 51.3829 131.503 43.8782 164.25C39.1653 184.817 38.7091 211.036 42.7219 230.73C62.2764 326.708 158.895 382.28 252.669 351.483C267.785 346.519 289.495 334.377 301.732 324.042C308.827 318.051 320.783 306.057 325.49 300.209C340.228 281.895 351.766 257.343 357.288 232.544C359.855 221.015 360.863 192.235 359.153 179.317C352.108 126.115 319.138 80.3232 270.564 56.273C254.846 48.4906 236.896 43.0956 219.367 40.8856C211.82 39.9338 189.412 39.6716 185.044 40.4835ZM179.472 56.0136C163.3 77.1711 152.163 114.943 147.843 163.286C146.532 177.949 146.2 211.635 147.209 227.408C147.951 238.979 147.951 238.979 145.542 236.095C143.543 233.702 135.44 218.226 132.412 211.016C126.572 197.113 122.677 177.664 122.105 159.55C121.049 126.133 129.221 97.2448 147.642 69.272C155.783 56.9104 158.097 54.8584 165.958 53.0302C175.703 50.7643 176.061 50.7025 180.037 50.581C183.71 50.4692 183.71 50.4692 179.472 56.0136ZM246.696 56.3858C300.747 74.018 339.624 119.519 349.572 176.786C351.252 186.46 351.264 213.799 349.593 223.551C345.706 246.237 337.248 267.325 324.652 285.745C317.436 296.297 311.81 302.457 307.586 304.43C302.665 306.729 283.998 308.253 267.937 307.667C254.012 307.158 248.43 306.051 249.67 304.044C250.386 302.886 254.057 289.262 254.989 284.299C261.398 250.214 262.92 233.908 262.869 199.927C262.804 156.103 258.475 124.67 247.998 91.9318C244.347 80.5219 236.966 64.9339 232.389 58.9642C230.483 56.4765 228.922 53.9328 228.922 53.3099C228.922 51.6851 236.084 52.9242 246.696 56.3858ZM137.307 64.5183C137.307 64.821 134.731 69.731 131.582 75.4306C117.737 100.483 111.32 125.696 111.286 155.17C111.27 168.698 111.611 172.24 114.286 186.428C118.505 208.806 129.218 232.723 144.051 252.884C149.168 259.837 150.753 262.794 151.241 266.301C155.443 296.429 166.844 328.477 179.007 344.347C181.15 347.146 182.638 349.702 182.311 350.029C180.992 351.348 157.994 345.826 146.469 341.423C110.107 327.534 80.7219 300.332 63.9274 265.014C58.5221 253.648 54.9935 243.394 52.1467 230.783C50.3732 222.926 50.0791 218.607 50.0791 200.41C50.0791 182.026 50.3635 177.93 52.2113 169.71C56.3156 151.443 61.556 138.286 71.0917 122.306C82.2987 103.524 94.2993 90.5172 112.234 77.713C124.266 69.1235 137.307 62.26 137.307 64.5183ZM169.917 280.121C176.023 285.355 191.625 295.515 200.474 300.022C210.369 305.061 215.174 307.052 224.101 309.813C237.597 313.986 237.13 313.351 233.13 322.117C227.514 334.426 219.227 344.935 212.326 348.501C197.729 356.044 181.745 340.435 170.657 307.813C167.182 297.586 162.385 278.996 162.382 275.744C162.381 273.698 162.507 273.772 169.917 280.121ZM272.56 317.279C284.096 317.511 293.535 317.926 293.535 318.202C293.535 320.058 275.068 331.8 264.122 336.903C253.05 342.065 230.465 349.321 229.251 348.107C229.018 347.875 230.748 344.921 233.093 341.544C236.81 336.194 243.878 322.547 245.693 317.215C246.181 315.782 246.841 315.563 248.945 316.137C250.397 316.534 261.024 317.048 272.56 317.279Z" fill="black"/>
<path d="M137.307 64.5183C137.307 64.821 134.731 69.731 131.582 75.4306C117.737 100.483 111.32 125.696 111.286 155.17C111.27 168.698 111.611 172.24 114.286 186.428C118.505 208.806 129.218 232.723 144.051 252.884C149.168 259.837 150.753 262.794 151.241 266.301C155.443 296.429 166.844 328.477 179.007 344.347C181.15 347.146 182.638 349.702 182.311 350.029C180.992 351.348 157.994 345.826 146.469 341.423C110.107 327.534 80.7219 300.332 63.9274 265.014C58.5221 253.648 54.9935 243.394 52.1467 230.783C50.3732 222.926 50.0791 218.607 50.0791 200.41C50.0791 182.026 50.3635 177.93 52.2113 169.71C56.3156 151.443 61.556 138.286 71.0917 122.306C82.2987 103.524 94.2993 90.5172 112.234 77.713C124.266 69.1235 137.307 62.26 137.307 64.5183Z" fill="#F7CD1E"/>
<path d="M169.917 280.121C176.023 285.355 191.625 295.515 200.474 300.022C210.369 305.061 215.174 307.052 224.101 309.813C237.597 313.986 237.13 313.351 233.13 322.117C227.514 334.426 219.227 344.935 212.326 348.501C197.729 356.044 181.745 340.435 170.657 307.813C167.182 297.586 162.385 278.996 162.382 275.744C162.381 273.698 162.507 273.772 169.917 280.121Z" fill="#FFF010"/>
<path d="M272.56 317.279C284.096 317.511 293.535 317.926 293.535 318.202C293.535 320.058 275.068 331.8 264.122 336.903C253.05 342.065 230.465 349.321 229.251 348.107C229.018 347.875 230.748 344.921 233.093 341.544C236.81 336.194 243.878 322.547 245.693 317.215C246.181 315.782 246.841 315.563 248.945 316.137C250.397 316.534 261.024 317.048 272.56 317.279Z" fill="#F7CD1E"/>
</svg>
