<svg width="1560" height="480" viewBox="0 0 1560 480" fill="none" xmlns="http://www.w3.org/2000/svg">
<path d="M1427.74 231.072C1427.74 234.856 1429.18 237.958 1432.06 240.379C1435.08 242.649 1439.62 245.222 1445.68 248.097C1450.67 250.519 1454.53 252.637 1457.25 254.453C1459.98 256.118 1462.32 258.388 1464.29 261.263C1466.41 264.139 1467.47 267.544 1467.47 271.478C1467.47 277.986 1464.37 283.207 1458.16 287.141C1452.11 291.076 1443.94 293.043 1433.65 293.043C1425.93 293.043 1419.57 291.681 1414.58 288.957C1409.58 286.082 1407.09 282.374 1407.09 277.834C1407.09 274.808 1408.22 272.311 1410.49 270.343C1412.76 268.225 1415.56 267.165 1418.89 267.165C1421.46 267.165 1424.04 267.695 1426.61 268.754C1424.04 270.722 1422.75 273.9 1422.75 278.288C1422.75 281.315 1423.81 283.661 1425.93 285.325C1428.05 286.99 1430.62 287.822 1433.65 287.822C1437.13 287.822 1440.08 286.914 1442.5 285.098C1445.07 283.282 1446.36 280.71 1446.36 277.38C1446.36 274.202 1445.07 271.705 1442.5 269.889C1440.08 267.922 1436.22 265.652 1430.92 263.079C1426.08 260.809 1422.15 258.766 1419.12 256.95C1416.24 254.983 1413.75 252.41 1411.63 249.232C1409.51 246.054 1408.45 242.195 1408.45 237.655C1408.45 230.845 1411.33 225.473 1417.08 221.538C1422.83 217.604 1430.09 215.636 1438.87 215.636C1446.59 215.636 1452.87 217.074 1457.71 219.949C1462.7 222.825 1465.2 226.532 1465.2 231.072C1465.2 234.553 1464.14 237.126 1462.02 238.79C1459.9 240.455 1457.18 241.287 1453.85 241.287C1450.67 241.287 1447.87 240.606 1445.45 239.244C1448.17 236.672 1449.54 233.418 1449.54 229.483C1449.54 226.911 1448.55 224.868 1446.59 223.354C1444.62 221.69 1442.05 220.857 1438.87 220.857C1435.39 220.857 1432.66 221.841 1430.7 223.808C1428.73 225.776 1427.74 228.197 1427.74 231.072Z" fill="black"/>
<path d="M1365.84 286.552C1370.22 286.552 1374.08 285.796 1377.41 284.282C1380.74 282.618 1384 279.894 1387.17 276.11L1389.9 278.153C1386.42 283.147 1381.95 287.082 1376.5 289.957C1371.21 292.681 1365.38 294.043 1359.03 294.043C1352.06 294.043 1345.78 292.379 1340.18 289.049C1334.74 285.72 1330.42 281.18 1327.25 275.429C1324.07 269.527 1322.48 262.869 1322.48 255.453C1322.48 243.649 1326.03 234.267 1333.15 227.305C1340.41 220.193 1350.02 216.636 1361.98 216.636C1370.45 216.636 1377.34 218.679 1382.63 222.765C1388.08 226.7 1390.81 231.845 1390.81 238.201C1390.81 245.465 1387.7 251.292 1381.5 255.68C1375.45 259.918 1367.12 262.036 1356.53 262.036C1352.29 262.036 1348.43 261.734 1344.95 261.128C1345.71 268.998 1347.98 275.202 1351.76 279.742C1355.54 284.282 1360.24 286.552 1365.84 286.552ZM1359.48 222.084C1354.79 222.084 1351.08 224.96 1348.36 230.71C1345.78 236.31 1344.5 244.179 1344.5 254.318V257.95C1346.16 257.95 1348.21 257.799 1350.63 257.496C1356.98 256.74 1361.83 254.697 1365.15 251.367C1368.64 247.887 1370.38 243.347 1370.38 237.747C1370.38 233.207 1369.32 229.5 1367.2 226.624C1365.23 223.598 1362.66 222.084 1359.48 222.084Z" fill="black"/>
<path d="M1298.44 279.061C1298.44 283.601 1299.87 285.871 1302.75 285.871C1305.62 285.871 1308.42 284.736 1311.15 282.466L1312.96 284.736C1307.37 290.941 1300.78 294.043 1293.22 294.043C1287.77 294.043 1283.83 292.681 1281.41 289.957C1278.99 287.082 1277.78 282.466 1277.78 276.11V229.164C1277.78 227.045 1276.8 225.986 1274.83 225.986H1267.79L1267.11 223.489C1270.14 220.916 1273.92 218.798 1278.46 217.133C1283 215.468 1287.54 214.636 1292.08 214.636C1293.9 214.636 1295.41 215.09 1296.62 215.998C1297.83 216.906 1298.44 218.117 1298.44 219.63V279.061ZM1276.51 191.844C1276.51 189.12 1277.02 186.093 1280.05 182.764C1283.08 179.435 1285.88 178.77 1288.45 178.77C1291.17 178.77 1294.05 179.435 1297.07 182.764C1300.25 186.093 1300.84 189.12 1300.84 191.844C1300.84 194.719 1300.25 197.822 1297.07 201.151C1294.05 204.329 1291.17 204.918 1288.45 204.918C1285.88 204.918 1283.08 204.329 1280.05 201.151C1277.02 197.822 1276.51 194.719 1276.51 191.844Z" fill="black"/>
<path d="M1259.35 284.736C1253.75 290.941 1247.16 294.043 1239.6 294.043C1234.91 294.043 1231.42 293.059 1229.15 291.092C1226.88 288.973 1225.37 285.568 1224.61 280.877C1220.68 285.417 1216.59 288.746 1212.36 290.865C1208.12 292.984 1203.43 294.043 1198.28 294.043C1190.72 294.043 1184.51 290.714 1179.67 284.055C1174.98 277.396 1172.63 268.77 1172.63 258.177C1172.63 245.465 1175.96 235.401 1182.62 227.986C1189.28 220.419 1198.36 216.636 1209.86 216.636C1215.16 216.636 1220 217.847 1224.39 220.268V189.071C1224.39 186.952 1223.4 185.893 1221.44 185.893H1213.72L1212.81 183.623C1215.84 180.899 1219.7 178.78 1224.39 177.267C1229.08 175.602 1233.69 174.77 1238.23 174.77C1240.2 174.77 1241.79 175.224 1243 176.132C1244.21 176.889 1244.82 178.024 1244.82 179.537V279.061C1244.82 283.601 1246.26 285.871 1249.13 285.871C1252.01 285.871 1254.81 284.736 1257.53 282.466L1259.35 284.736ZM1210.09 283.147C1215.84 283.147 1220.6 279.969 1224.39 273.613V224.808C1221.36 223.295 1218.03 222.538 1214.4 222.538C1201.69 222.538 1195.33 233.51 1195.33 255.453C1195.33 264.382 1196.54 271.267 1198.96 276.11C1201.54 280.801 1205.24 283.147 1210.09 283.147Z" fill="black"/>
<path d="M1133.2 286.552C1137.58 286.552 1141.44 285.795 1144.77 284.282C1148.1 282.617 1151.36 279.893 1154.53 276.11L1157.26 278.153C1153.78 283.147 1149.31 287.081 1143.86 289.957C1138.57 292.681 1132.74 294.043 1126.39 294.043C1119.42 294.043 1113.14 292.378 1107.54 289.049C1102.1 285.719 1097.78 281.179 1094.61 275.429C1091.43 269.527 1089.84 262.868 1089.84 255.453C1089.84 243.649 1093.4 234.266 1100.51 227.305C1107.77 220.192 1117.38 216.636 1129.34 216.636C1137.81 216.636 1144.7 218.679 1149.99 222.765C1155.44 226.699 1158.17 231.845 1158.17 238.201C1158.17 245.465 1155.06 251.291 1148.86 255.68C1142.81 259.917 1134.48 262.036 1123.89 262.036C1119.65 262.036 1115.79 261.733 1112.31 261.128C1113.07 268.997 1115.34 275.202 1119.12 279.742C1122.91 284.282 1127.6 286.552 1133.2 286.552ZM1126.84 222.084C1122.15 222.084 1118.44 224.959 1115.72 230.71C1113.14 236.309 1111.86 244.178 1111.86 254.318V257.95C1113.52 257.95 1115.57 257.798 1117.99 257.496C1124.34 256.739 1129.19 254.696 1132.51 251.367C1136 247.886 1137.74 243.346 1137.74 237.747C1137.74 233.207 1136.68 229.499 1134.56 226.624C1132.59 223.597 1130.02 222.084 1126.84 222.084ZM1137.28 181.862C1142.88 184.132 1145.68 187.537 1145.68 192.077C1145.68 197.373 1142.35 201.157 1135.69 203.427L1117.08 210.237L1114.13 206.605L1137.28 181.862Z" fill="black"/>
<path d="M1048.89 216.636C1056.6 216.636 1062.81 220.041 1067.5 226.851C1072.34 233.51 1074.76 242.287 1074.76 253.183C1074.76 260.901 1073.33 267.863 1070.45 274.067C1067.73 280.121 1063.79 284.888 1058.65 288.368C1053.65 291.698 1047.98 293.362 1041.62 293.362C1037.99 293.362 1034.51 292.833 1031.18 291.773C1028 290.563 1025.28 288.898 1023.01 286.779V315.657C1023.01 319.289 1023.46 321.711 1024.37 322.921C1025.43 324.283 1027.77 325.343 1031.41 326.099L1034.36 326.78L1033 330.639H997.81L995.994 328.369L997.81 326.099C999.626 323.678 1000.84 321.03 1001.44 318.154C1002.2 315.43 1002.58 308.723 1002.58 304.031V232.753C1002.58 230.029 1001.59 228.667 999.626 228.667H992.589L991.908 226.17C994.784 223.598 998.491 221.479 1003.03 219.814C1007.72 218.15 1012.26 217.317 1016.65 217.317C1018.62 217.317 1020.13 217.771 1021.19 218.679C1022.4 219.587 1023.01 220.798 1023.01 222.311V232.299C1026.79 226.851 1030.73 222.917 1034.81 220.495C1039.05 217.923 1043.74 216.636 1048.89 216.636ZM1033 286.779C1039.2 286.779 1043.89 284.131 1047.07 278.834C1050.4 273.538 1052.06 265.744 1052.06 255.453C1052.06 246.525 1050.85 239.715 1048.43 235.023C1046.01 230.181 1042.53 227.759 1037.99 227.759C1031.94 227.759 1026.94 231.77 1023.01 239.79V283.828C1025.88 285.796 1029.21 286.779 1033 286.779Z" fill="black"/>
<path d="M903 255.613C903 243.72 906.186 234.312 912.558 227.387C919.071 220.462 927.85 217 938.894 217C949.938 217 958.717 220.538 965.23 227.613C971.743 234.538 975 243.871 975 255.613C975 267.355 971.743 276.688 965.23 283.613C958.717 290.538 949.938 294 938.894 294C927.85 294 919.071 290.538 912.558 283.613C906.186 276.688 903 267.355 903 255.613ZM953.549 256.065C953.549 245.978 952.204 237.774 949.513 231.452C946.823 224.978 943.425 221.742 939.319 221.742C934.788 221.742 931.106 224.903 928.274 231.226C925.442 237.398 924.027 245.527 924.027 255.613C924.027 265.849 925.301 273.978 927.85 280C930.54 286.022 934.08 289.032 938.469 289.032C942.858 289.032 946.469 286.022 949.301 280C952.133 273.828 953.549 265.849 953.549 256.065Z" fill="black"/>
<path d="M879.007 280.061C879.007 284.601 880.445 286.871 883.32 286.871C886.195 286.871 888.995 285.736 891.719 283.466L893.535 285.736C887.936 291.941 881.353 295.043 873.786 295.043C868.338 295.043 864.403 293.681 861.982 290.957C859.712 288.082 858.577 283.466 858.577 277.11V242.379C858.577 233.602 855.777 229.213 850.178 229.213C844.73 229.213 840.266 232.921 836.785 240.336C833.456 247.752 831.791 257.437 831.791 269.392C831.791 273.932 832.169 277.64 832.926 280.515C833.683 283.239 834.893 285.888 836.558 288.46L838.374 290.73L836.558 293H803.643L802.281 289.141L805.459 288.46C807.88 287.855 809.469 286.947 810.226 285.736C810.983 284.374 811.361 281.802 811.361 278.018V233.753C811.361 230.878 810.377 229.44 808.41 229.44H801.146L800.465 226.943C803.492 224.371 807.275 222.252 811.815 220.587C816.355 218.923 820.895 218.09 825.435 218.09C827.402 218.09 828.916 218.544 829.975 219.452C831.186 220.36 831.791 221.571 831.791 223.084V242.606C833.91 235.494 837.693 229.592 843.141 224.9C848.589 220.058 854.34 217.636 860.393 217.636C866.9 217.636 871.592 219.755 874.467 223.992C877.494 228.23 879.007 234.964 879.007 244.195V280.061Z" fill="black"/>
<path d="M727.874 223.765C730.749 227.7 732.262 233.98 732.414 242.606H732.868C734.986 235.342 738.467 229.365 743.31 224.673C748.152 219.982 753.298 217.636 758.746 217.636C765.253 217.636 769.944 219.831 772.82 224.219C775.846 228.457 777.36 235.115 777.36 244.195V280.061C777.36 284.601 778.797 286.871 781.673 286.871C784.548 286.871 787.348 285.736 790.072 283.466L791.888 285.736C786.288 291.941 779.705 295.043 772.139 295.043C766.539 295.043 762.605 293.606 760.335 290.73C758.065 287.704 756.93 282.483 756.93 275.067V242.379C756.93 233.602 754.054 229.213 748.304 229.213C743.461 229.213 739.678 233.299 736.954 241.471C734.23 249.492 732.868 258.799 732.868 269.392C733.019 274.084 733.397 277.791 734.003 280.515C734.759 283.239 735.97 285.888 737.635 288.46L739.451 290.73L737.635 293H712.438V242.379C712.438 233.602 709.562 229.213 703.812 229.213C698.969 229.213 695.186 233.299 692.462 241.471C689.738 249.492 688.376 258.799 688.376 269.392C688.376 274.084 688.678 277.791 689.284 280.515C690.04 283.239 691.327 285.888 693.143 288.46L694.959 290.73L693.143 293H660.228L658.866 289.141L662.044 288.46C664.465 287.855 666.054 286.947 666.811 285.736C667.567 284.374 667.946 281.802 667.946 278.018V233.753C667.946 231.483 666.962 230.348 664.995 230.348H657.731L657.05 228.078C660.076 225.506 663.86 223.387 668.4 221.722C672.94 220.058 677.48 219.225 682.02 219.225C683.987 219.225 685.5 219.679 686.56 220.587C687.77 221.344 688.376 222.479 688.376 223.992V242.606C690.343 235.645 693.672 229.743 698.364 224.9C703.055 220.058 708.352 217.636 714.254 217.636C720.458 217.636 724.998 219.679 727.874 223.765Z" fill="black"/>
<path d="M634.066 217.09V292C634.066 303.956 630.586 313.187 623.624 319.694C616.814 326.353 607.28 329.682 595.022 329.682C587.456 329.682 581.327 328.245 576.635 325.369C571.944 322.494 569.598 318.711 569.598 314.019C569.598 309.933 570.809 306.604 573.23 304.031C575.652 301.61 578.83 300.399 582.764 300.399C585.64 300.399 589 300.399 591.163 302.215C582.764 306.5 582.31 309.328 582.31 314.019C582.31 317.349 584.033 319.381 586 321.5C588.119 323.619 594.795 324.688 597.973 324.688C608.567 324.688 613.863 316.062 613.863 298.81V269.981C611.896 275.732 608.415 280.499 603.421 284.282C598.579 287.914 593.358 289.73 587.758 289.73C581.1 289.73 576.181 287.687 573.003 283.601C569.825 279.515 568.236 273.311 568.236 264.987V231.164C568.236 229.046 567.253 227.986 565.285 227.986H558.248L557.567 225.489C560.443 222.917 564.226 220.798 568.917 219.133C573.609 217.469 578.073 216.636 582.31 216.636C584.278 216.636 585.791 217.09 586.85 217.998C588.061 218.906 588.666 220.117 588.666 221.63V267.484C588.666 275.959 591.315 280.196 596.611 280.196C601.757 280.196 605.918 277.094 609.096 270.889C612.274 264.685 613.863 256.437 613.863 246.146C613.863 240.698 613.409 236.234 612.501 232.753C611.593 229.273 610.156 226.246 608.188 223.673L606.372 221.176L607.961 219.133L634.066 217.09Z" fill="black"/>
<path d="M545 238.543L542.943 241.394C540.543 244.504 538.914 247.874 538.057 251.503C537.371 255.132 537.029 260.662 537.029 268.093L534.949 313L532.196 312.699L523.648 300.193C520 295 503.257 292.718 492.8 292.718C475.657 292.718 462.029 287.102 451.914 275.869C441.971 264.637 437 249.516 437 230.507C437 210.98 442.4 195.513 453.2 184.108C464.171 172.703 478.914 167 497.429 167C509.257 167 518.857 169.333 526.229 173.999C533.771 178.492 537.543 184.454 537.543 191.884C537.543 199.142 534.543 204.845 528.543 208.992C522.543 213.14 515 215.213 505.914 215.213C508.314 212.276 510.2 209.165 511.571 205.882C512.943 202.426 513.629 198.019 513.629 192.662C513.629 186.787 511.914 182.121 508.486 178.665C505.057 175.036 500.771 173.221 495.629 173.221C486.029 173.221 478.314 178.492 472.486 189.033C466.829 199.401 464 213.226 464 230.507C464 240.703 465.457 249.861 468.371 257.983C471.457 265.933 475.657 272.154 480.971 276.647C486.286 281.14 492.371 283.386 499.229 283.386C504.371 283.386 509.343 282.436 514.143 280.535V257.206C514.143 253.231 513.8 250.38 513.114 248.652C512.429 246.751 511.143 245.282 509.257 244.245C507.371 243.036 504.286 241.826 500 240.616L501.543 235.691H542.943L545 238.543Z" fill="black"/>
<line x1="429" y1="292.5" x2="1479" y2="292.5" stroke="black"/>
<line x1="429" y1="157.5" x2="1479" y2="157.5" stroke="black"/>
<line x1="429" y1="202.5" x2="1479" y2="202.5" stroke="black"/>
<line x1="429" y1="247.5" x2="1479" y2="247.5" stroke="black"/>
<line x1="429" y1="337.5" x2="1479" y2="337.5" stroke="black"/>
<path fill-rule="evenodd" clip-rule="evenodd" d="M225.044 80.4835C223.983 80.6811 219.209 81.2375 214.436 81.7196C203.7 82.8044 197.697 84.3424 185.974 89.0122C165.71 97.083 149.032 106.869 135.357 118.712C109.87 140.785 91.3829 171.503 83.8782 204.25C79.1653 224.817 78.7091 251.036 82.7219 270.73C102.276 366.708 198.895 422.28 292.669 391.483C307.785 386.519 329.495 374.377 341.732 364.042C348.827 358.051 360.783 346.057 365.49 340.209C380.228 321.895 391.766 297.343 397.288 272.544C399.855 261.015 400.863 232.235 399.153 219.317C392.108 166.115 359.138 120.323 310.564 96.273C294.846 88.4906 276.896 83.0956 259.367 80.8856C251.82 79.9338 229.412 79.6716 225.044 80.4835ZM219.472 96.0136C203.3 117.171 192.163 154.943 187.843 203.286C186.532 217.949 186.2 251.635 187.209 267.408C187.951 278.979 187.951 278.979 185.542 276.095C183.543 273.702 175.44 258.226 172.412 251.016C166.572 237.113 162.677 217.664 162.105 199.55C161.049 166.133 169.221 137.245 187.642 109.272C195.783 96.9104 198.097 94.8584 205.958 93.0302C215.703 90.7643 216.061 90.7025 220.037 90.581C223.71 90.4692 223.71 90.4692 219.472 96.0136ZM286.696 96.3858C340.747 114.018 379.624 159.519 389.572 216.786C391.252 226.46 391.264 253.799 389.593 263.551C385.706 286.237 377.248 307.325 364.652 325.745C357.436 336.297 351.81 342.457 347.586 344.43C342.665 346.729 323.998 348.253 307.937 347.667C294.012 347.158 288.43 346.051 289.67 344.044C290.386 342.886 294.057 329.262 294.989 324.299C301.398 290.214 302.92 273.908 302.869 239.927C302.804 196.103 298.475 164.67 287.998 131.932C284.347 120.522 276.966 104.934 272.389 98.9642C270.483 96.4765 268.922 93.9328 268.922 93.3099C268.922 91.6851 276.084 92.9242 286.696 96.3858ZM177.307 104.518C177.307 104.821 174.731 109.731 171.582 115.431C157.737 140.483 151.32 165.696 151.286 195.17C151.27 208.698 151.611 212.24 154.286 226.428C158.505 248.806 169.218 272.723 184.051 292.884C189.168 299.837 190.753 302.794 191.241 306.301C195.443 336.429 206.844 368.477 219.007 384.347C221.15 387.146 222.638 389.702 222.311 390.029C220.992 391.348 197.994 385.826 186.469 381.423C150.107 367.534 120.722 340.332 103.927 305.014C98.5221 293.648 94.9935 283.394 92.1467 270.783C90.3732 262.926 90.0791 258.607 90.0791 240.41C90.0791 222.026 90.3635 217.93 92.2113 209.71C96.3156 191.443 101.556 178.286 111.092 162.306C122.299 143.524 134.299 130.517 152.234 117.713C164.266 109.124 177.307 102.26 177.307 104.518ZM209.917 320.121C216.023 325.355 231.625 335.515 240.474 340.022C250.369 345.061 255.174 347.052 264.101 349.813C277.597 353.986 277.13 353.351 273.13 362.117C267.514 374.426 259.227 384.935 252.326 388.501C237.729 396.044 221.745 380.435 210.657 347.813C207.182 337.586 202.385 318.996 202.382 315.744C202.381 313.698 202.507 313.772 209.917 320.121ZM312.56 357.279C324.096 357.511 333.535 357.926 333.535 358.202C333.535 360.058 315.068 371.8 304.122 376.903C293.05 382.065 270.465 389.321 269.251 388.107C269.018 387.875 270.748 384.921 273.093 381.544C276.81 376.194 283.878 362.547 285.693 357.215C286.181 355.782 286.841 355.563 288.945 356.137C290.397 356.534 301.024 357.048 312.56 357.279Z" fill="black"/>
<path d="M177.307 104.518C177.307 104.821 174.731 109.731 171.582 115.431C157.737 140.483 151.32 165.696 151.286 195.17C151.27 208.698 151.611 212.24 154.286 226.428C158.505 248.806 169.218 272.723 184.051 292.884C189.168 299.837 190.753 302.794 191.241 306.301C195.443 336.429 206.844 368.477 219.007 384.347C221.15 387.146 222.638 389.702 222.311 390.029C220.992 391.348 197.994 385.826 186.469 381.423C150.107 367.534 120.722 340.332 103.927 305.014C98.5221 293.648 94.9935 283.394 92.1467 270.783C90.3732 262.926 90.0791 258.607 90.0791 240.41C90.0791 222.026 90.3635 217.93 92.2113 209.71C96.3156 191.443 101.556 178.286 111.092 162.306C122.299 143.524 134.299 130.517 152.234 117.713C164.266 109.124 177.307 102.26 177.307 104.518Z" fill="#F7CD1E"/>
<path d="M209.917 320.121C216.023 325.355 231.625 335.515 240.474 340.022C250.369 345.061 255.174 347.052 264.101 349.813C277.597 353.986 277.13 353.351 273.13 362.117C267.514 374.426 259.227 384.935 252.326 388.501C237.729 396.044 221.745 380.435 210.657 347.813C207.182 337.586 202.385 318.996 202.382 315.744C202.381 313.698 202.507 313.772 209.917 320.121Z" fill="#FFF010"/>
<path d="M312.56 357.279C324.096 357.511 333.535 357.926 333.535 358.202C333.535 360.058 315.068 371.8 304.122 376.903C293.05 382.065 270.465 389.321 269.251 388.107C269.018 387.875 270.748 384.921 273.093 381.544C276.81 376.194 283.878 362.547 285.693 357.215C286.181 355.782 286.841 355.563 288.945 356.137C290.397 356.534 301.024 357.048 312.56 357.279Z" fill="#F7CD1E"/>
</svg>
